<?xml version="1.0" encoding="utf-8"?>
<svg xmlns="http://www.w3.org/2000/svg" width="1200" height="675" viewBox="0 0 1200 675" role="img" aria-labelledby="title desc">
  <title id="title">Agents Customers Tickets - Architecture</title>
  <desc id="desc">Modular monolith architecture with HTTP layer and four modules. Users API is a dedicated dependency row above Shared concerns, Configuration, and Persistence; only Persistence accesses MySQL. Boxes are clickable and link to source folders.</desc>
  <defs>
    <linearGradient id="bg" x1="0" y1="0" x2="1" y2="1">
      <stop offset="0" stop-color="#f4f8ff"/>
      <stop offset="1" stop-color="#f8fff8"/>
    </linearGradient>
    <style>
      .title { font: 700 32px 'Segoe UI', Tahoma, sans-serif; fill: #17324d; }
      .subtitle { font: 400 16px 'Segoe UI', Tahoma, sans-serif; fill: #345; }
      .layer { font: 700 13px 'Segoe UI', Tahoma, sans-serif; fill: #3c526b; }
      .box-title { font: 700 15px 'Segoe UI', Tahoma, sans-serif; fill: #0f2940; }
      .box-text { font: 400 12px 'Segoe UI', Tahoma, sans-serif; fill: #27455f; }
      .hint { font: 400 11px 'Segoe UI', Tahoma, sans-serif; fill: #4b6278; }
      .link:hover rect { filter: brightness(1.03); }
      .link { cursor: pointer; }
      .arrow { stroke: #51697f; stroke-width: 2.3; fill: none; marker-end: url(#arrowHead); }
    </style>
    <marker id="arrowHead" orient="auto" markerWidth="8" markerHeight="6" refX="7" refY="3">
      <path d="M0,0 L8,3 L0,6 Z" fill="#51697f"/>
    </marker>
  </defs>
  <g transform="matrix(1, 0, 0, 1, 1.143583, -86.912331)">
    <rect width="1200" height="656.417" fill="url(#bg)" rx="20" style="" x="-2.287" y="91.486"/>
    <path class="arrow" d="M 447.141 315.708 C 447.141 315.708 913.98 363.786 948.03 391.026" style="stroke-width: 2.3;"/>
    <path class="arrow" d="M 729.607 313.422 C 729.607 313.422 889.52 320.025 945.743 373.873" style="stroke-width: 2.3;"/>
  </g>
  <rect x="25.139" y="43.672" width="1136" height="70" rx="12" fill="#e8f2ff" stroke="#9db9d9"/>
  <text class="layer" x="41.139" y="68.672" style="white-space: pre; font-size: 13px;">Entry / HTTP Layer</text>
  <text class="hint" x="41.139" y="88.672" style="white-space: pre; font-size: 11px;">Controllers expose REST endpoints and delegate to module application services.</text>
  <a class="link" href="../src/main/java/com/agentscustomerstickets/agents/web" target="_blank" transform="matrix(1, 0, 0, 1, -6.8615, -66.327827)">
    <rect x="48" y="205" width="250" height="84.549" rx="12" fill="#eaf7ff" stroke="#72b6e5" stroke-width="2" style=""/>
    <text class="box-title" x="66" y="235" style="white-space: pre;">Agents Module</text>
    <text class="box-text" x="66" y="255" style="white-space: pre;">web + application</text>
    <text class="box-text" x="66" y="274" style="white-space: pre;">Role-based agent operations</text>
  </a>
  <a class="link" href="../src/main/java/com/agentscustomerstickets/customers" target="_blank" transform="matrix(1, 0, 0, 1, -6.8615, -66.327827)">
    <rect x="325" y="205" width="250" height="85.693" rx="12" fill="#eefcf2" stroke="#7dc99a" stroke-width="2" style=""/>
    <text class="box-title" x="343" y="235" style="white-space: pre;">Customers Module</text>
    <text class="box-text" x="343" y="255" style="white-space: pre;">web + application</text>
    <text class="box-text" x="340.701" y="277.89" style="white-space: pre; stroke-width: 1; font-size: 12px;">Role-based custpmer operations</text>
  </a>
  <a class="link" href="../src/main/java/com/agentscustomerstickets/tickets" target="_blank" transform="matrix(1, 0, 0, 1, -6.8615, -66.327827)">
    <rect x="602" y="205" width="250" height="86.836" rx="12" fill="#fff8eb" stroke="#e4bb72" stroke-width="2" style=""/>
    <text class="box-title" x="620" y="235" style="white-space: pre;">Tickets Module</text>
    <text class="box-text" x="620" y="255" style="white-space: pre;">web + application + infra</text>
    <text class="box-text" x="620" y="274" style="white-space: pre;">Ticket creation and retrieval</text>
  </a>
  <a class="link" href="../src/main/java/com/agentscustomerstickets/users" target="_blank" transform="matrix(1, 0, 0, 1, -6.8615, -66.327827)">
    <rect x="879" y="205" width="273" height="83.405" rx="12" fill="#fff0f1" stroke="#da8f9a" stroke-width="2" style=""/>
    <text class="box-title" x="897" y="235" style="white-space: pre;">Users Module</text>
    <text class="box-text" x="897" y="255" style="white-space: pre;">api + application + infra + web</text>
    <text class="box-text" x="897" y="274" style="white-space: pre;">Auth, JWT, user management</text>
  </a>
  <a class="link" href="../src/main/java/com/agentscustomerstickets/users/api" target="_blank" transform="matrix(1, 0, 0, 1, 447.141052, -131.51207)">
    <rect x="502.922" y="390" width="186.15" height="90" rx="12" fill="#fdeff4" stroke="#da8f9a" stroke-width="2" style=""/>
    <text class="box-title" x="568.953" y="418.856" style="white-space: pre; font-size: 15px;">Users API</text>
    <text class="box-text" x="418" y="441" style="white-space: pre;" transform="matrix(1, 0, 0, 1, 91.486664, 0)">Identity lookup <tspan x="418" dy="1em">​</tspan>and user management contracts</text>
  </a>
  <rect x="35.431" y="394.206" width="1136" height="123.955" rx="12" fill="#ffffff" stroke="#9fb0bf" stroke-width="2" style=""/>
  <text class="layer" x="41.139" y="477.672" style="white-space: pre; font-size: 13px;"> </text>
  <a class="link" href="../src/main/java/com/agentscustomerstickets/shared" target="_blank" transform="matrix(1, 0, 0, 1, -3.43075, -142.947906)">
    <rect x="80" y="560" width="320" height="82.687" rx="12" fill="#f6f0ff" stroke="#a994d4" stroke-width="2" style=""/>
    <text class="box-title" x="98" y="590" style="white-space: pre;">Shared Concerns</text>
    <text class="box-text" x="98" y="611" style="white-space: pre;">Errors, status endpoint,</text>
    <text class="box-text" x="98" y="628" style="white-space: pre;">shared cross-cutting code</text>
  </a>
  <a class="link" href="../src/main/resources/application.yml" target="_blank" transform="matrix(1, 0, 0, 1, 2.287167, -145.235077)">
    <rect x="440" y="560" width="320" height="82.687" rx="12" fill="#e9f7ff" stroke="#79aac8" stroke-width="2" style=""/>
    <text class="box-title" x="458" y="590" style="white-space: pre;">Configuration</text>
    <text class="box-text" x="458" y="611" style="white-space: pre;">application.yml and runtime</text>
    <text class="box-text" x="458" y="628" style="white-space: pre;">environment settings</text>
  </a>
  <a class="link" href="../src/main/java/com/agentscustomerstickets/tickets/infra" target="_blank" transform="matrix(1, 0, 0, 1, 11.435833, -146.378662)">
    <rect x="800" y="560" width="320" height="79.257" rx="12" fill="#f0fbff" stroke="#79b8d7" stroke-width="2" style=""/>
    <text class="box-title" x="818" y="590" style="white-space: pre;">Persistence</text>
    <text class="box-text" x="818" y="611" style="white-space: pre;">JPA entities, repositories, infra adapters</text>
  </a>
  <a class="link" href="../docker-compose.yml" target="_blank" transform="matrix(1, 0, 0, 1, 384.243958, -185.260483)">
    <rect x="434" y="744" width="330" height="71.108" rx="12" fill="#fff2e5" stroke="#dc9b5b" stroke-width="2" style=""/>
    <text class="box-title" x="452" y="776" style="white-space: pre;">MySQL (Docker Compose)</text>
    <text class="box-text" x="452" y="797" style="white-space: pre;">Database is accessed through Persistence only</text>
  </a>
  <path class="arrow" d="M 166.139 113.672 L 166.139 138.672"/>
  <path class="arrow" d="M 443.139 113.672 L 443.139 138.672"/>
  <path class="arrow" d="M 720.139 113.672 L 720.139 138.672"/>
  <path class="arrow" d="M 1008.14 113.672 L 1008.14 138.672"/>
  <path class="arrow" d="M 159.278 226.652 L 159.278 395.744" style=""/>
  <path class="arrow" d="M 439.708 225.508 L 439.708 396.887" style=""/>
  <path class="arrow" d="M 715.565 225.509 L 715.564 390.026" style="transform-box: fill-box; transform-origin: 0% -14.0407%;"/>
  <path class="arrow" d="M 978.486 228.687 L 1005.5 253.618" style="transform-box: fill-box; transform-origin: 50% 50%;" transform="matrix(-0.783764, -0.621059, 0.621059, -0.783764, -0.000005, -0.000012)"/>
  <path class="arrow" d="M 942.399 559.882 L 942.847 492.878" style="transform-box: fill-box; transform-origin: 50% 50%;" transform="matrix(-1, 0, 0, -1, 0.000019, -0.00005)"/>
  <path class="arrow" d="M 962.619 223.708 L 792.78 393.825" style="stroke-width: 2.3; transform-origin: 891.582px 246.437px;"/>
  <path class="arrow" d="M 173.001 230.082 L 946.063 312.262" style=""/>
</svg>